OFF
20 54 0
.5 .5 -.5
.5 -.5 .5
.5 -.5 -.5
-.5 .5 .5
-.5 .5 -.5
-.5 -.5 .5
-.5 -.5 -.5
0 .309 .809
0 .309 -.809
0 -.309 -.809
0 -.309 .809
.309 .809 0
-.309 .809 0
.309 -.809 0
-.309 -.809 0
.809 0 .309
-.809 0 .309
.809 0 -.309
-.809 0 -.309
.5 .5 .5
5 16 14 18 5 6
5 4 3 18 12 16
5 8 18 9 4 6
5 11 8 12 0 4
5 11 7 12 19 3
5 7 16 10 3 5
5 1 7 15 10 19
5 6 13 9 14 2
5 14 10 13 5 1
5 2 1 17 13 15
5 17 19 0 15 11
5 17 9 0 2 8
5 5 1 17 8 18
5 4 16 10 15 0
5 8 6 5 7 11
5 18 14 1 19 12
5 5 3 11 17 13
5 2 0 12 16 14
5 7 16 6 2 15
5 2 1 7 12 8
5 15 13 6 4 11
5 18 3 19 17 9
5 9 4 3 10 13
5 9 0 19 10 14
4 17 11 4 9
4 14 9 17 1
4 17 1 7 11
4 11 4 16 7
4 9 4 16 14
4 7 1 14 16
4 3 18 8 11
4 18 14 2 8
4 11 15 2 8
4 14 10 15 2
4 14 18 3 10
4 3 10 15 11
4 10 16 6 13
4 19 17 8 12
4 16 12 19 10
4 10 13 17 19
4 6 13 17 8
4 8 12 16 6
4 5 3 19 1
4 6 4 0 2
4 6 5 1 2
4 2 0 19 1
4 6 4 3 5
4 19 0 4 3
4 13 15 7 5
4 18 9 0 12
4 9 13 5 18
4 9 13 15 0
4 0 12 7 15
4 12 7 5 18
