OFF
60 92 0
-.0458 -.0927 -.6367
.0927 -.6367 .0458
.6367 .0458 -.0927
.0458 .0927 -.6367
-.0927 .6367 .0458
-.6367 -.0458 -.0927
.0458 -.0927 .6367
-.0927 -.6367 -.0458
-.6367 .0458 .0927
-.0458 .0927 .6367
.0927 .6367 -.0458
.6367 -.0458 .0927
-.5094 .3792 .1133
-.3792 .1133 .5094
-.1133 .5094 .3792
.5094 -.3792 .1133
.3792 -.1133 .5094
.1133 -.5094 .3792
.5094 .3792 -.1133
.3792 .1133 -.5094
.1133 .5094 -.3792
-.5094 -.3792 -.1133
-.3792 -.1133 -.5094
-.1133 -.5094 -.3792
-.2802 -.5208 -.2575
.5208 -.2575 .2802
.2575 .2802 -.5208
.2802 .5208 -.2575
-.5208 .2575 .2802
-.2575 -.2802 -.5208
.2802 -.5208 .2575
-.5208 -.2575 -.2802
-.2575 .2802 .5208
-.2802 .5208 .2575
.5208 .2575 -.2802
.2575 -.2802 .5208
-.5666 -.2292 .206
.2292 .206 .5666
-.206 .5666 -.2292
.5666 .2292 .206
-.2292 -.206 .5666
.206 -.5666 -.2292
.5666 -.2292 -.206
-.2292 .206 -.5666
.206 .5666 .2292
-.5666 .2292 -.206
.2292 -.206 -.5666
-.206 -.5666 .2292
-.1875 .4635 -.4075
-.4635 -.4075 .1875
.4075 .1875 .4635
.1875 -.4635 -.4075
.4635 .4075 .1875
-.4075 -.1875 .4635
.1875 .4635 .4075
.4635 -.4075 -.1875
-.4075 .1875 -.4635
-.1875 -.4635 .4075
-.4635 .4075 -.1875
.4075 -.1875 -.4635
5 12 24 48 36 0
5 50 26 14 2 38
5 52 40 4 16 28
5 13 1 37 49 25
5 35 59 47 11 23
5 20 32 56 44 8
5 18 6 42 54 30
5 51 39 3 15 27
5 34 22 10 46 58
5 43 7 19 31 55
5 45 9 21 33 57
5 29 53 41 5 17
3 53 29 15
3 53 41 56
3 5 41 6
3 5 17 46
3 17 29 28
3 18 32 56
3 20 8 37
3 44 8 3
3 32 20 31
3 44 56 53
3 52 28 17
3 33 21 35
3 30 54 19
3 6 42 10
3 16 28 27
3 33 57 22
3 57 45 54
3 52 40 58
3 30 18 32
3 7 19 45
3 31 55 20
3 10 22 42
3 12 24 26
3 34 58 23
3 46 58 52
3 47 11 0
3 2 38 9
3 51 27 16
3 13 25 24
3 49 25 14
3 49 37 55
3 39 51 48
3 15 27 29
3 47 59 50
3 35 59 21
3 35 23 34
3 37 1 8
3 50 26 12
3 50 38 59
3 6 18 41
3 43 55 49
3 54 42 57
3 15 3 44
3 23 11 40
3 48 24 13
3 0 36 4
3 39 3 1
3 14 2 43
3 16 4 36
3 40 4 11
3 9 21 38
3 9 45 7
3 13 1 39
3 14 26 25
3 10 46 5
3 12 0 47
3 36 48 51
3 7 43 2
3 34 22 33
3 31 19 30
3 2 7 9
3 20 37 55
3 13 39 48
3 14 43 49
3 1 8 3
3 24 25 26
3 0 11 4
3 54 19 45
3 31 32 30
3 46 17 52
3 16 51 36
3 50 12 47
3 27 28 29
3 38 21 59
3 40 58 23
3 6 10 5
3 34 35 33
3 57 22 42
3 53 44 15
3 56 41 18
