OFF
30 26 0
.191 -.309 .5
-.191 .309 .5
-.191 -.309 .5
.191 -.309 -.5
.309 .5 .191
.309 -.5 .191
.5 .191 .309
-.5 .191 .309
-.191 -.309 -.5
.5 .191 -.309
-.5 .191 -.309
0 -.618 0
.618 0 0
0 0 .618
0 0 -.618
.5 -.191 -.309
.191 .309 .5
-.5 -.191 -.309
.191 .309 -.5
-.618 0 0
-.191 .309 -.5
.309 .5 -.191
-.309 .5 .191
-.309 -.5 .191
-.309 .5 -.191
.309 -.5 -.191
0 .618 0
-.309 -.5 -.191
.5 -.191 .309
-.5 -.191 .309
3 13 25 21
3 7 8 21
3 6 24 3
3 17 15 26
3 9 11 10
3 7 6 11
3 29 26 28
3 28 18 27
3 24 27 13
3 1 20 12
3 29 25 20
3 4 5 14
3 0 3 19
3 18 19 16
3 8 12 2
3 2 10 4
3 0 22 9
3 23 16 15
3 1 5 17
3 22 23 14
10 0 19 18 28 29 20 12 2 10 9
10 29 26 15 23 22 9 11 7 21 25
10 8 7 6 3 19 16 15 17 1 12
10 3 0 22 14 5 1 20 25 13 24
10 27 24 6 11 10 4 5 17 26 28
10 8 2 4 14 23 16 18 27 13 21
