OFF
60 24 0
.191 .191 .809
.191 -.191 .809
-.809 -.191 .191
-.809 .191 .191
-.309 .618 .5
-.309 -.618 .5
-.618 .5 .309
-.618 -.5 .309
0 .5 .691
0 -.5 .691
.5 .309 .618
.691 0 .5
.191 .191 -.809
.5 -.309 .618
.691 0 -.5
.5 .309 -.618
-.691 0 .5
-.191 .191 .809
-.5 .309 .618
-.691 0 -.5
.191 -.191 -.809
-.5 -.309 .618
-.191 -.191 .809
.5 -.309 -.618
0 .5 -.691
-.191 .191 -.809
-.5 .309 -.618
-.191 -.191 -.809
-.5 -.309 -.618
0 -.5 -.691
.191 .809 .191
.309 .618 .5
.5 .691 0
-.191 .809 .191
.309 .618 -.5
-.5 .691 0
.191 -.809 .191
.309 -.618 .5
.5 -.691 0
.191 .809 -.191
-.5 -.691 0
.191 -.809 -.191
-.309 .618 -.5
-.191 .809 -.191
-.191 -.809 .191
.309 -.618 -.5
-.191 -.809 -.191
-.309 -.618 -.5
.618 .5 .309
.809 .191 -.191
.618 .5 -.309
.809 -.191 -.191
.618 -.5 .309
-.809 .191 -.191
.809 -.191 .191
-.618 .5 -.309
-.809 -.191 -.191
.618 -.5 -.309
-.618 -.5 -.309
.809 .191 .191
10 3 8 9 2 4 1 7 6 0 5
10 39 10 18 43 48 17 35 32 0 6
10 46 21 13 41 7 1 38 40 22 52
10 22 52 48 17 37 59 8 9 54 31
10 18 43 19 16 33 26 2 4 42 56
10 16 19 46 21 53 47 5 3 28 44
10 10 51 34 31 54 15 30 11 14 39
10 13 41 14 11 36 23 59 37 45 49
10 44 28 23 36 58 20 38 40 27 57
10 30 15 26 33 50 25 35 32 12 55
10 12 55 58 20 42 56 29 24 53 47
10 57 50 25 45 49 24 29 51 34 27
5 22 40 27 34 31
5 8 3 28 23 59
5 0 5 47 12 32
5 1 4 42 20 38
5 17 35 25 45 37
5 54 15 26 2 9
5 16 33 50 57 44
5 52 46 19 43 48
5 10 51 29 56 18
5 24 53 21 13 49
5 11 30 55 58 36
5 14 39 6 7 41
