OFF
60 104 0
-.245 .4109 1.0203
-.4109 1.0203 .245
-1.0203 .245 .4109
.245 -.4109 1.0203
.4109 -1.0203 .245
1.0203 -.245 .4109
.245 .4109 -1.0203
.4109 1.0203 -.245
1.0203 .245 -.4109
-.245 -.4109 -1.0203
-.4109 -1.0203 -.245
-1.0203 -.245 -.4109
-.7702 .4389 .6957
-.4389 .6957 .7702
-.6957 .7702 .4389
.7702 -.4389 .6957
.4389 -.6957 .7702
.6957 -.7702 .4389
.7702 .4389 -.6957
.4389 .6957 -.7702
.6957 .7702 -.4389
-.7702 -.4389 -.6957
-.4389 -.6957 -.7702
-.6957 -.7702 -.4389
-.9552 -.1396 .5814
.1396 .5814 .9552
-.5814 .9552 -.1396
.9552 .1396 .5814
-.1396 -.5814 .9552
.5814 -.9552 -.1396
.9552 -.1396 -.5814
-.1396 .5814 -.9552
.5814 .9552 .1396
-.9552 .1396 -.5814
.1396 -.5814 -.9552
-.5814 -.9552 .1396
-.5443 -.5252 .8354
.5252 .8354 .5443
-.8354 .5443 -.5252
.5443 .5252 .8354
-.5252 -.8354 .5443
.8354 -.5443 -.5252
.5443 -.5252 -.8354
-.5252 .8354 -.5443
.8354 .5443 .5252
-.5443 .5252 -.8354
.5252 -.8354 -.5443
-.8354 -.5443 .5252
-.1054 -.185 1.1066
.185 1.1066 .1054
-1.1066 .1054 -.185
.1054 .185 1.1066
-.185 -1.1066 .1054
1.1066 -.1054 -.185
.1054 -.185 -1.1066
-.185 1.1066 -.1054
1.1066 .1054 .185
-.1054 .185 -1.1066
.185 -1.1066 -.1054
-1.1066 -.1054 .185
5 17 41 5 29 53
5 52 28 4 40 16
5 58 42 8 27 16
5 11 47 23 59 35
5 14 38 2 26 50
5 24 0 36 12 48
5 1 25 49 13 37
5 3 27 51 15 39
5 54 30 6 42 18
5 8 44 20 56 32
5 31 55 19 43 7
5 57 33 9 45 21
5 10 34 58 22 46
5 4 35 21 54 41
5 10 47 48 15 29
5 36 2 33 22 52
5 13 55 45 11 24
5 7 44 51 12 26
5 30 5 39 49 19
5 28 17 56 37 0
5 25 14 59 40 3
5 50 43 6 34 23
5 53 46 9 31 20
5 57 18 32 1 38
3 52 46 17
3 5 4 3
3 44 15 53
3 18 41 56
3 30 29 34
3 27 25 32
3 48 39 13
3 51 36 16
3 37 20 55
3 49 43 14
3 1 0 2
3 12 50 47
3 24 35 28
3 26 33 31
3 38 59 21
3 9 11 10
3 57 22 42
3 54 19 45
3 6 8 7
3 23 40 58
3 42 18 57
3 30 6 34
3 54 18 41
3 42 6 8
3 30 54 19
3 29 15 53
3 17 41 56
3 17 53 46
3 29 5 30
3 5 4 41
3 10 9 46
3 22 58 42
3 22 46 52
3 10 34 29
3 58 34 23
3 59 35 21
3 59 23 40
3 35 11 24
3 47 23 50
3 11 47 10
3 45 21 54
3 33 57 22
3 9 45 11
3 57 21 38
3 33 9 31
3 19 49 43
3 7 31 26
3 43 7 6
3 19 55 45
3 55 20 31
3 26 12 50
3 14 38 59
3 14 50 43
3 38 2 1
3 26 2 33
3 49 25 14
3 37 1 0
3 37 13 55
3 25 1 32
3 49 13 39
3 15 48 39
3 3 27 25
3 39 3 5
3 15 51 44
3 51 27 16
3 40 16 58
3 40 4 3
3 28 52 17
3 28 4 35
3 52 16 36
3 13 48 24
3 12 51 36
3 0 24 28
3 0 36 2
3 12 48 47
3 8 44 7
3 56 20 37
3 18 56 32
3 53 44 20
3 8 27 32
