OFF
60 24 0
.5 0 1.809
0 1.809 .5
1.809 .5 0
-.5 0 1.809
0 1.809 -.5
-1.809 .5 0
.5 0 -1.809
0 -1.809 .5
1.809 -.5 0
-.5 0 -1.809
0 -1.809 -.5
-1.809 -.5 0
1.309 .309 1.309
.309 1.309 1.309
1.309 1.309 .309
-1.309 .309 1.309
-.309 1.309 1.309
-1.309 1.309 .309
1.309 -.309 1.309
.309 -1.309 1.309
1.309 -1.309 .309
-1.309 -.309 1.309
-.309 -1.309 1.309
-1.309 -1.309 .309
1.309 .309 -1.309
.309 1.309 -1.309
1.309 1.309 -.309
-1.309 .309 -1.309
-.309 1.309 -1.309
-1.309 1.309 -.309
1.309 -.309 -1.309
.309 -1.309 -1.309
1.309 -1.309 -.309
-1.309 -.309 -1.309
-.309 -1.309 -1.309
-1.309 -1.309 -.309
.5 1.618 .809
1.618 .809 .5
-.809 .5 1.618
-.5 1.618 .809
-1.618 .809 .5
.809 -.5 1.618
.5 -1.618 .809
1.618 -.809 .5
-.809 -.5 1.618
-.5 -1.618 .809
-1.618 -.809 .5
.809 .5 -1.618
.5 1.618 -.809
1.618 .809 -.5
-.809 .5 -1.618
-.5 1.618 -.809
-1.618 .809 -.5
.809 -.5 -1.618
.5 -1.618 -.809
1.618 -.809 -.5
-.809 -.5 -1.618
-.5 -1.618 -.809
-1.618 -.809 -.5
.809 .5 1.618
5 15 3 21 38 44
5 18 0 12 41 59
5 7 22 42 45 19
5 35 11 23 58 46
5 26 37 49 14 2
5 13 1 16 36 39
5 32 43 55 20 8
5 52 40 29 5 17
5 28 4 25 51 48
5 6 30 47 53 24
5 27 56 50 33 9
5 34 10 31 57 54
10 52 27 56 34 10 7 22 44 15 40
10 15 40 29 51 48 26 37 12 0 3
10 59 41 19 45 23 11 5 17 39 13
10 38 21 46 58 33 50 28 4 1 16
10 13 1 4 25 47 30 55 43 18 59
10 39 36 14 49 24 6 9 27 52 17
10 28 48 26 2 8 32 54 34 56 50
10 45 42 20 55 30 6 9 33 58 23
10 19 7 10 31 53 24 49 37 12 41
10 11 35 57 31 53 47 25 51 29 5
10 8 20 42 22 44 38 16 36 14 2
10 35 46 21 3 0 18 43 32 54 57
